<?xml version="1.0" standalone="no"?>
<!DOCTYPE svg PUBLIC "-//W3C//DTD SVG 20010904//EN"
 "http://www.w3.org/TR/2001/REC-SVG-20010904/DTD/svg10.dtd">
<svg version="1.0" xmlns="http://www.w3.org/2000/svg"
 width="1146.000000pt" height="246.000000pt" viewBox="0 0 1146.000000 246.000000"
 preserveAspectRatio="xMidYMid meet">
<metadata>
Created by potrace 1.15, written by Peter Selinger 2001-2017
</metadata>
<g transform="translate(0.000000,246.000000) scale(0.100000,-0.100000)"
fill="#000000" stroke="none">
<path d="M503 2335 c-146 -26 -197 -52 -263 -130 -62 -75 -80 -115 -80 -183 0
-49 5 -67 36 -118 20 -32 45 -73 55 -89 26 -42 44 -142 74 -405 14 -124 42
-337 62 -475 20 -143 38 -310 40 -390 5 -134 4 -143 -22 -215 -15 -41 -30 -96
-32 -121 -4 -43 -2 -48 29 -72 112 -84 317 -81 593 11 l110 37 7 55 c9 72 28
539 28 703 l0 127 44 0 c263 0 495 209 565 510 30 129 34 186 18 276 -25 138
-89 243 -207 343 -53 43 -71 52 -152 71 -152 36 -348 38 -464 5 -16 -5 -26 2
-47 34 l-27 41 -148 -1 c-81 0 -179 -7 -219 -14z m312 -115 c29 -57 24 -56
150 -35 244 40 471 2 582 -98 174 -157 137 -570 -70 -781 -110 -112 -186 -136
-340 -109 -97 17 -100 17 -114 -3 -12 -16 -14 -75 -8 -399 5 -254 3 -408 -4
-464 -6 -46 -13 -86 -15 -88 -8 -8 -150 -42 -201 -48 -67 -9 -135 9 -135 35 0
11 10 22 23 26 43 13 45 18 25 126 -46 255 -78 510 -138 1103 -32 314 -56 511
-66 526 -3 5 -20 9 -37 9 -18 0 -37 4 -43 8 -17 11 -41 63 -49 102 -14 76 81
115 325 133 25 2 55 4 67 5 18 2 28 -9 48 -48z m-487 -150 c23 -49 75 -111
119 -140 19 -13 23 -30 33 -130 24 -243 81 -759 121 -1089 l41 -343 -21 -64
c-12 -36 -21 -80 -21 -98 l0 -34 -38 10 c-20 5 -44 16 -52 24 -13 13 -12 21
12 64 l28 50 -40 437 c-42 454 -90 868 -115 987 -11 51 -28 89 -65 145 -59 91
-74 131 -66 173 6 31 22 58 35 58 3 0 16 -23 29 -50z"/>
<path d="M1054 1984 c-49 -18 -115 -71 -144 -119 -18 -29 -20 -40 -11 -72 6
-21 15 -92 21 -158 14 -169 21 -218 32 -232 15 -18 180 -17 253 2 108 28 193
107 226 210 21 67 17 173 -10 227 -28 60 -98 122 -158 142 -57 20 -154 19
-209 0z m206 -66 c88 -45 136 -162 112 -275 -7 -32 -20 -69 -30 -83 -18 -24
-78 -70 -92 -70 -4 0 4 23 18 50 54 110 37 265 -38 340 -22 22 -47 40 -55 40
-8 0 -15 5 -15 10 0 18 54 11 100 -12z m-130 -118 c60 -60 51 -191 -17 -250
-60 -53 -65 -46 -82 112 -6 48 -15 96 -21 107 -23 44 80 71 120 31z"/>
<path d="M1940 1217 c-72 -27 -89 -42 -124 -109 -44 -82 -45 -106 -5 -144 17
-16 36 -40 41 -54 10 -26 34 -292 45 -503 l6 -117 -30 -48 c-43 -69 -47 -95
-24 -145 28 -60 42 -73 86 -86 55 -15 122 -14 182 4 62 18 147 91 165 141 6
19 16 33 21 31 5 -1 18 -27 30 -57 33 -82 61 -94 219 -98 143 -4 157 0 231 76
33 34 38 45 35 78 -3 32 -10 44 -50 74 -27 20 -62 58 -79 85 -18 28 -51 75
-75 105 -55 71 -114 169 -114 190 0 10 25 33 59 54 104 63 150 139 151 242 0
94 -53 164 -169 223 -67 35 -163 51 -326 57 -82 3 -170 7 -195 10 -25 2 -61
-2 -80 -9z m320 -62 c126 -5 207 -22 287 -61 66 -32 93 -73 93 -143 0 -87 -57
-172 -165 -247 -45 -31 -54 -41 -49 -58 19 -61 81 -163 144 -236 39 -46 78
-100 87 -122 11 -27 27 -45 54 -58 39 -21 58 -55 40 -73 -18 -18 -115 -21
-147 -4 -41 21 -58 42 -174 212 -137 199 -170 239 -184 225 -7 -7 -10 -61 -8
-165 4 -165 -7 -250 -38 -287 -16 -20 -27 -22 -106 -23 l-89 0 -3 28 c-4 30
21 67 45 67 16 0 16 8 -2 205 -8 88 -15 250 -16 360 0 110 -3 218 -7 240 -7
36 -10 40 -42 41 -22 1 -41 10 -52 24 -24 30 -23 45 8 69 23 18 36 20 117 16
51 -3 144 -7 207 -10z m-299 -140 l26 -6 7 -202 c3 -111 11 -280 17 -375 l11
-172 -31 -35 c-19 -22 -31 -47 -31 -64 0 -32 32 -79 64 -91 19 -8 19 -9 -7 -9
-15 -1 -45 8 -66 19 -63 31 -67 67 -16 131 34 43 35 47 35 130 0 47 -6 132
-14 190 -8 57 -17 163 -21 234 -9 183 -11 194 -51 217 -36 21 -42 44 -23 80
11 20 12 19 42 -10 18 -17 44 -34 58 -37z m439 -685 c54 -80 114 -160 134
-179 41 -40 35 -51 -31 -51 -78 0 -86 8 -158 152 -51 103 -68 147 -72 193 -6
57 -5 59 12 45 10 -8 62 -80 115 -160z"/>
<path d="M2176 1085 c-4 -13 4 -243 10 -274 5 -23 8 -23 78 -19 84 6 129 27
151 74 32 69 10 177 -44 212 -28 19 -188 25 -195 7z"/>
<path d="M5406 1214 c-49 -17 -86 -47 -113 -92 -32 -52 -29 -88 12 -148 47
-69 54 -112 62 -395 l6 -235 -28 -42 c-56 -84 -41 -188 34 -237 75 -50 135
-58 411 -59 l255 -1 31 27 c67 59 107 227 67 277 -25 30 -62 23 -105 -20 -29
-29 -31 -29 -136 -28 -150 1 -155 3 -169 69 -6 30 -12 80 -12 111 l-1 56 40
12 c48 14 71 45 78 106 6 58 -12 99 -54 124 -32 19 -34 24 -34 73 0 102 -11
96 175 100 l164 3 30 29 c40 38 75 120 67 158 -11 57 -39 100 -72 114 -45 19
-653 17 -708 -2z m636 -30 c63 -6 68 -8 78 -37 15 -43 12 -99 -6 -125 -20 -29
-32 -28 -45 5 l-10 26 -122 -7 c-67 -3 -149 -12 -182 -19 l-60 -13 -3 -99 c-1
-55 1 -127 5 -160 8 -59 9 -60 40 -60 42 0 55 -15 51 -56 -3 -32 -5 -34 -50
-39 -26 -3 -51 -9 -55 -14 -10 -10 -10 -227 0 -287 11 -67 33 -74 226 -74
l155 0 8 34 c7 24 12 31 20 23 16 -16 5 -139 -14 -158 -10 -11 -47 -18 -114
-24 -250 -23 -461 0 -496 54 -15 22 -7 55 16 73 24 18 25 18 16 138 -5 66 -11
206 -14 310 -11 344 -14 371 -41 383 -31 14 -57 55 -49 76 13 33 47 41 209 46
262 9 366 10 437 4z m-629 -146 l31 -27 12 -313 c7 -172 16 -338 19 -368 6
-48 4 -58 -13 -74 -36 -32 -46 -70 -28 -105 21 -40 48 -57 121 -76 l60 -15
-64 6 c-160 14 -226 98 -152 192 l29 37 -8 290 c-8 314 -13 347 -70 431 -26
39 -27 43 -13 75 l14 34 16 -30 c8 -16 29 -42 46 -57z"/>
<path d="M3334 1201 l-271 -6 -42 -28 c-87 -58 -103 -130 -47 -212 45 -65 56
-148 56 -417 0 -194 0 -198 -25 -234 -34 -49 -35 -127 -2 -174 54 -81 140
-100 458 -100 l235 0 32 33 c83 86 99 277 24 277 -20 0 -61 -26 -78 -49 -10
-13 -34 -15 -135 -12 -68 1 -129 7 -135 12 -13 10 -39 193 -30 208 3 5 22 12
41 15 73 14 102 132 49 195 -14 17 -32 31 -40 31 -11 0 -14 18 -14 79 l0 80
164 3 c157 3 166 4 189 26 38 36 70 118 62 159 -22 120 -39 124 -491 114z
m426 -61 c15 -28 15 -117 0 -135 -18 -21 -38 -18 -45 6 -7 21 -11 22 -134 16
-165 -7 -229 -21 -237 -52 -3 -12 -2 -80 3 -151 l8 -129 42 -3 c34 -3 42 -7
47 -27 10 -38 -3 -55 -46 -61 -68 -11 -71 -20 -65 -174 2 -74 8 -142 11 -151
11 -27 73 -38 221 -40 l139 -2 14 33 c10 26 16 30 23 19 12 -19 10 -77 -4
-119 -16 -45 -44 -51 -262 -53 -199 -2 -272 6 -317 37 -42 28 -47 75 -10 91
21 9 23 15 18 55 -3 25 -10 158 -16 295 -5 138 -12 290 -14 339 -3 73 -7 92
-22 103 -66 47 -73 80 -21 106 27 13 78 16 344 16 305 1 313 0 323 -19z m-725
-69 c3 -11 21 -33 39 -49 l34 -29 6 -204 c4 -112 12 -271 17 -353 5 -82 6
-152 1 -155 -4 -3 -16 -17 -25 -31 -44 -64 0 -128 106 -154 l62 -15 -60 6
c-81 7 -152 39 -170 74 -22 41 -19 62 15 103 l29 38 -4 254 c-5 289 -14 351
-62 432 -28 47 -32 60 -24 79 13 28 28 30 36 4z"/>
<path d="M4240 1199 c-113 -7 -196 -26 -273 -65 -36 -19 -47 -29 -43 -42 3 -9
10 -60 16 -112 14 -116 33 -188 60 -223 25 -32 82 -49 130 -39 29 7 41 18 71
67 34 57 38 60 75 60 l39 0 17 -130 c31 -238 41 -379 26 -384 -7 -2 -34 -25
-60 -52 -58 -59 -71 -116 -42 -175 30 -59 77 -78 210 -82 197 -7 342 36 378
112 34 73 12 169 -50 209 -18 12 -35 33 -39 47 -3 14 -9 108 -12 209 l-6 183
27 -17 c50 -33 152 9 197 82 19 31 21 43 14 146 -7 121 -18 172 -40 180 -60
24 -479 39 -695 26z m525 -70 c66 -5 124 -14 128 -18 4 -4 10 -46 14 -93 4
-62 2 -91 -8 -109 l-13 -24 -6 34 c-7 50 -47 76 -113 74 -29 0 -65 -6 -81 -12
l-29 -12 6 -151 c9 -204 37 -500 49 -515 5 -6 23 -15 39 -18 52 -12 59 -65 13
-107 -33 -29 -306 -52 -344 -28 -25 16 11 75 56 90 36 12 36 12 30 59 -3 25
-15 143 -26 261 -26 260 -53 410 -77 428 -20 15 -120 11 -185 -8 -35 -10 -38
-14 -38 -49 0 -23 -6 -44 -16 -52 -14 -11 -19 -10 -35 10 -27 33 -39 86 -39
168 l0 72 48 4 c108 8 516 6 627 -4z m-711 -124 c10 -101 23 -140 56 -171 34
-33 26 -54 -22 -54 -40 0 -58 45 -71 182 -9 87 -8 109 3 123 19 23 26 6 34
-80z m329 -70 c20 -19 35 -111 57 -350 11 -110 22 -220 25 -245 6 -42 4 -46
-24 -63 -37 -22 -69 -66 -77 -105 -5 -24 -1 -36 19 -56 31 -31 30 -31 -23 -10
-39 16 -40 17 -40 64 0 57 10 70 75 95 l48 18 -7 101 c-7 118 -33 351 -50 451
l-11 70 -79 5 c-77 5 -87 14 -36 33 31 12 109 7 123 -8z"/>
<path d="M6965 1139 c-50 -44 -63 -94 -42 -160 18 -55 24 -259 8 -259 -5 0
-62 78 -126 173 -155 226 -146 217 -214 216 l-56 0 -62 -87 c-72 -99 -70 -86
-49 -302 15 -145 18 -216 17 -343 -1 -63 -4 -71 -31 -97 -36 -34 -50 -68 -50
-125 0 -57 24 -80 99 -96 60 -12 221 -5 251 11 22 12 49 78 57 139 3 25 9 52
12 58 4 8 37 -30 85 -96 90 -124 84 -121 240 -121 l89 0 47 47 c60 60 79 114
61 173 -8 26 -21 45 -36 52 -14 6 -25 22 -29 40 -3 17 -6 158 -6 313 l0 282
30 38 c23 29 30 48 30 80 0 23 -6 47 -12 53 -24 19 -136 42 -207 42 -64 0 -73
-3 -106 -31z m232 -34 c27 -18 29 -33 7 -49 -30 -23 -41 -449 -18 -689 5 -51
9 -59 35 -73 25 -13 29 -20 29 -59 l0 -45 -42 -2 c-74 -3 -132 3 -153 16 -11
8 -51 62 -89 122 -38 60 -77 120 -87 134 -11 14 -43 59 -73 100 -30 41 -67 86
-82 100 l-27 25 9 -90 c11 -116 11 -401 1 -412 -5 -4 -44 -10 -88 -12 -89 -4
-112 7 -107 48 2 21 8 26 33 26 30 1 30 1 29 55 0 30 -5 84 -12 120 -6 36 -12
97 -12 135 0 39 -5 144 -11 235 -9 122 -9 175 0 205 17 62 24 69 62 61 28 -5
41 -17 74 -69 21 -34 80 -118 131 -187 80 -111 165 -236 219 -324 15 -25 19
-27 27 -13 5 9 7 138 5 289 -3 268 -3 274 -26 305 -13 17 -20 36 -17 42 20 32
138 35 183 6z"/>
<path d="M7717 1137 c-78 -46 -117 -102 -117 -166 0 -30 6 -44 25 -58 23 -17
25 -28 40 -183 16 -166 23 -225 49 -379 12 -72 12 -90 0 -124 -20 -56 -17 -89
9 -128 30 -46 81 -69 194 -87 106 -17 126 -13 263 51 178 85 320 322 320 535
0 99 -17 144 -94 261 -128 193 -299 284 -549 294 -93 3 -111 1 -140 -16z m-25
-137 c9 -16 28 -32 41 -35 23 -6 26 -14 36 -88 13 -86 47 -295 81 -487 16 -90
18 -116 8 -119 -29 -10 -68 -60 -68 -89 0 -63 67 -102 178 -102 28 0 33 -3 22
-10 -31 -20 -114 -11 -171 17 -66 34 -80 63 -60 126 20 62 18 112 -12 312 -14
99 -29 216 -33 260 -6 87 -20 145 -35 145 -4 0 -16 11 -25 25 -14 21 -15 31
-6 50 15 32 23 31 44 -5z m343 -78 c77 -37 156 -121 184 -197 25 -66 41 -202
23 -191 -7 4 -12 14 -12 23 0 9 -18 53 -39 97 -45 93 -117 172 -198 218 -41
23 -53 35 -53 54 0 32 20 31 95 -4z m23 -162 c36 -28 59 -57 81 -102 61 -129
64 -201 10 -263 -27 -31 -93 -64 -105 -52 -5 4 -54 405 -54 440 0 25 13 21 68
-23z"/>
<path d="M8865 1149 c-48 -6 -92 -29 -121 -61 -55 -60 -57 -104 -9 -173 29
-43 36 -63 45 -140 5 -50 10 -173 10 -273 0 -174 -1 -186 -22 -215 -34 -47
-37 -132 -6 -177 53 -80 168 -103 474 -96 l199 5 27 32 c57 68 81 207 44 248
-24 26 -49 20 -91 -20 -29 -28 -35 -29 -122 -29 -142 0 -150 3 -162 62 -6 27
-11 75 -11 107 l0 59 35 6 c86 16 102 171 23 212 -28 15 -29 16 -26 87 l3 72
152 5 c144 5 153 6 179 30 43 40 67 104 59 158 -8 54 -49 101 -92 104 -69 4
-552 2 -588 -3z m538 -35 c73 -7 76 -8 87 -37 15 -45 12 -92 -9 -118 l-18 -23
-19 29 -18 28 -106 -7 c-58 -4 -132 -12 -165 -19 l-60 -12 1 -143 c1 -153 4
-163 49 -154 19 3 27 -1 34 -21 16 -42 3 -67 -33 -67 -63 0 -71 -16 -70 -132
0 -57 4 -124 8 -150 6 -43 10 -48 44 -59 22 -8 92 -13 171 -14 l134 0 9 27
c11 31 27 37 29 11 3 -37 -2 -89 -12 -115 -10 -24 -18 -27 -77 -35 -124 -14
-361 -9 -424 10 -67 20 -96 53 -79 86 6 11 18 24 27 29 13 7 14 29 5 178 -6
93 -13 259 -17 369 l-6 200 -34 28 c-40 34 -45 70 -11 89 14 8 79 15 177 18
264 10 305 10 383 4z m-575 -133 l33 -34 9 -231 c5 -127 12 -279 16 -337 6
-101 6 -108 -16 -137 -47 -64 -18 -129 70 -157 l45 -15 -45 3 c-86 7 -150 56
-150 115 0 10 13 36 29 58 l29 39 -8 270 c-5 149 -12 284 -18 301 -13 40 -41
95 -60 116 -12 15 -13 22 -1 49 12 30 14 31 23 13 6 -10 26 -34 44 -53z"/>
<path d="M9890 1134 c-47 -16 -110 -49 -110 -58 0 -6 -14 -31 -30 -56 -40 -60
-40 -102 0 -131 38 -29 48 -60 55 -172 3 -51 13 -167 22 -259 l16 -168 -38
-74 c-45 -88 -43 -125 9 -181 l33 -35 92 0 c77 0 99 4 140 25 53 26 90 65 110
114 18 41 28 39 42 -9 26 -87 75 -110 238 -110 102 0 104 0 151 35 53 39 80
74 80 104 0 24 -44 78 -70 86 -10 3 -33 28 -50 56 -17 27 -52 78 -78 112 -55
70 -86 119 -101 160 -10 25 -8 29 32 53 59 37 115 92 138 136 23 45 26 146 5
186 -38 72 -147 141 -255 162 -73 14 -405 32 -431 24z m200 -59 c220 -5 372
-46 415 -112 58 -88 6 -213 -128 -310 -29 -20 -54 -38 -56 -40 -2 -1 14 -40
36 -85 25 -51 64 -110 103 -153 34 -38 70 -88 80 -111 11 -26 31 -49 54 -62
26 -15 36 -28 36 -46 0 -22 -6 -26 -45 -32 -92 -13 -122 11 -252 202 -104 153
-162 226 -173 219 -6 -3 -9 -74 -8 -163 2 -127 -1 -167 -16 -209 -9 -28 -22
-56 -29 -61 -7 -5 -44 -13 -83 -17 -59 -6 -74 -4 -87 10 -28 27 -17 57 30 84
15 8 15 22 4 152 -8 79 -15 242 -16 361 -4 270 -6 278 -50 278 -33 0 -65 28
-65 56 0 19 63 55 85 49 11 -3 85 -8 165 -10z m-196 -135 l23 0 7 -252 c4
-139 11 -298 16 -353 l8 -99 -29 -33 c-46 -53 -37 -106 24 -144 l32 -19 -35 6
c-74 14 -118 53 -105 94 3 10 19 35 35 55 26 33 30 46 30 103 0 36 -7 122 -15
191 -8 69 -18 186 -23 260 -7 115 -11 136 -28 148 -51 37 -54 41 -43 73 l11
30 34 -30 c19 -16 45 -30 58 -30z m412 -648 c41 -63 93 -133 116 -158 l41 -44
-65 0 c-80 0 -81 1 -154 151 -41 83 -57 128 -61 169 l-4 55 26 -30 c14 -16 60
-81 101 -143z"/>
<path d="M10094 1011 c-6 -6 -3 -168 4 -231 l7 -54 54 3 c80 4 122 21 148 60
44 65 23 178 -39 212 -21 12 -164 20 -174 10z"/>
</g>
</svg>
